<svg width="1280" height="720" viewBox="0 0 1280 720" xmlns="http://www.w3.org/2000/svg">
  <rect x="0" y="0" width="1280" height="720" fill="#F4F5F7"/>
  <text x="64" y="72" font-family="Arial,sans-serif" font-size="14" font-weight="bold" letter-spacing="3" fill="#8A94A3">{{EYEBROW}}</text>
  <text x="64" y="120" font-family="'Microsoft YaHei',Arial,sans-serif" font-size="34" font-weight="bold" fill="#1F2A3C">{{PAGE_TITLE}}</text>
  <rect x="66" y="136" width="120" height="4" fill="#C79A3E"/>

  <rect x="64" y="184" width="560" height="452" rx="12" fill="#FFFFFF" stroke="#E4E7EC" stroke-width="1"/>
  <circle cx="112" cy="240" r="24" fill="#2E6DA4"/>
  <rect x="103" y="231" width="18" height="18" rx="3" fill="none" stroke="#FFFFFF" stroke-width="2"/>
  <text x="150" y="234" font-family="'Microsoft YaHei',Arial,sans-serif" font-size="24" font-weight="bold" fill="#1F2A3C">{{LEFT_TITLE}}</text>
  <text x="150" y="258" font-family="'Microsoft YaHei',Arial,sans-serif" font-size="14" font-style="italic" fill="#8A94A3">sub-headline</text>
  <line x1="96" y1="290" x2="592" y2="290" stroke="#E4E7EC" stroke-width="1"/>
  <circle cx="104" cy="330" r="9" fill="#C79A3E"/><path d="M100 330 l3 3 l6 -6" fill="none" stroke="#FFFFFF" stroke-width="2" stroke-linecap="round" stroke-linejoin="round"/>
  <text x="124" y="336" font-family="'Microsoft YaHei',Arial,sans-serif" font-size="16" fill="#3C4757">&#35201;&#28857;&#26465;&#30446;&#19968;</text>
  <circle cx="104" cy="382" r="9" fill="#C79A3E"/><path d="M100 382 l3 3 l6 -6" fill="none" stroke="#FFFFFF" stroke-width="2" stroke-linecap="round" stroke-linejoin="round"/>
  <text x="124" y="388" font-family="'Microsoft YaHei',Arial,sans-serif" font-size="16" fill="#3C4757">&#35201;&#28857;&#26465;&#30446;&#20108;</text>
  <circle cx="104" cy="434" r="9" fill="#C79A3E"/><path d="M100 434 l3 3 l6 -6" fill="none" stroke="#FFFFFF" stroke-width="2" stroke-linecap="round" stroke-linejoin="round"/>
  <text x="124" y="440" font-family="'Microsoft YaHei',Arial,sans-serif" font-size="16" fill="#3C4757">&#35201;&#28857;&#26465;&#30446;&#19977;</text>
  <circle cx="104" cy="486" r="9" fill="#C79A3E"/><path d="M100 486 l3 3 l6 -6" fill="none" stroke="#FFFFFF" stroke-width="2" stroke-linecap="round" stroke-linejoin="round"/>
  <text x="124" y="492" font-family="'Microsoft YaHei',Arial,sans-serif" font-size="16" fill="#3C4757">&#35201;&#28857;&#26465;&#30446;&#22235;</text>
  <rect x="96" y="556" width="496" height="52" rx="8" fill="#FBF7EE" stroke="#EAD9B5" stroke-width="1"/>
  <rect x="96" y="556" width="5" height="52" rx="2" fill="#C79A3E"/>
  <text x="118" y="588" font-family="'Microsoft YaHei',Arial,sans-serif" font-size="14" fill="#7A6A45">&#23567;&#32467;&#65306;&#19968;&#21477;&#35805;&#27010;&#36848;&#26412;&#26639;&#20851;&#38190;&#32467;&#35770;</text>

  <rect x="656" y="184" width="560" height="452" rx="12" fill="#152238"/>
  <circle cx="704" cy="240" r="24" fill="#C79A3E"/>
  <rect x="695" y="232" width="18" height="14" rx="2" fill="none" stroke="#152238" stroke-width="2"/><circle cx="700" cy="238" r="2" fill="#152238"/>
  <text x="742" y="234" font-family="'Microsoft YaHei',Arial,sans-serif" font-size="24" font-weight="bold" fill="#FFFFFF">{{RIGHT_TITLE}}</text>
  <text x="742" y="258" font-family="'Microsoft YaHei',Arial,sans-serif" font-size="14" font-style="italic" fill="#C79A3E">sub-headline</text>
  <line x1="688" y1="290" x2="1184" y2="290" stroke="#2C3B58" stroke-width="1"/>
  <circle cx="696" cy="330" r="9" fill="#C79A3E"/><path d="M692 330 l3 3 l6 -6" fill="none" stroke="#152238" stroke-width="2" stroke-linecap="round" stroke-linejoin="round"/>
  <text x="716" y="336" font-family="'Microsoft YaHei',Arial,sans-serif" font-size="16" fill="#D6DCE6">&#35201;&#28857;&#26465;&#30446;&#19968;</text>
  <circle cx="696" cy="382" r="9" fill="#C79A3E"/><path d="M692 382 l3 3 l6 -6" fill="none" stroke="#152238" stroke-width="2" stroke-linecap="round" stroke-linejoin="round"/>
  <text x="716" y="388" font-family="'Microsoft YaHei',Arial,sans-serif" font-size="16" fill="#D6DCE6">&#35201;&#28857;&#26465;&#30446;&#20108;</text>
  <circle cx="696" cy="434" r="9" fill="#C79A3E"/><path d="M692 434 l3 3 l6 -6" fill="none" stroke="#152238" stroke-width="2" stroke-linecap="round" stroke-linejoin="round"/>
  <text x="716" y="440" font-family="'Microsoft YaHei',Arial,sans-serif" font-size="16" fill="#D6DCE6">&#35201;&#28857;&#26465;&#30446;&#19977;</text>
  <circle cx="696" cy="486" r="9" fill="#C79A3E"/><path d="M692 486 l3 3 l6 -6" fill="none" stroke="#152238" stroke-width="2" stroke-linecap="round" stroke-linejoin="round"/>
  <text x="716" y="492" font-family="'Microsoft YaHei',Arial,sans-serif" font-size="16" fill="#D6DCE6">&#35201;&#28857;&#26465;&#30446;&#22235;</text>
  <rect x="688" y="556" width="496" height="52" rx="8" fill="none" stroke="#C79A3E" stroke-width="1"/>
  <text x="710" y="588" font-family="'Microsoft YaHei',Arial,sans-serif" font-size="14" fill="#E6CE93">&#23567;&#32467;&#65306;&#19968;&#21477;&#35805;&#27010;&#36848;&#26412;&#26639;&#20851;&#38190;&#32467;&#35770;</text>

  <line x1="64" y1="676" x2="1216" y2="676" stroke="#E4E7EC" stroke-width="1"/>
  <text x="64" y="701" font-family="Arial,sans-serif" font-size="12" fill="#9AA3B0">&#31215;&#26408;&#32593;(JEEMOO.COM)</text>
  <text x="1216" y="701" font-family="Arial,sans-serif" font-size="12" fill="#9AA3B0" text-anchor="end">{{PAGE_NUM}}</text>
</svg>
